<svg xmlns="http://www.w3.org/2000/svg" xmlns:xlink="http://www.w3.org/1999/xlink" width="500" zoomAndPan="magnify" viewBox="0 0 375 374.999991" height="500" preserveAspectRatio="xMidYMid meet" version="1.0"><defs><g/><clipPath id="a0da7ca014"><path d="M 167 100 L 274 100 L 274 197.691406 L 167 197.691406 Z M 167 100 " clip-rule="nonzero"/></clipPath><clipPath id="6c280d7407"><path d="M 96.585938 110 L 174 110 L 174 174 L 96.585938 174 Z M 96.585938 110 " clip-rule="nonzero"/></clipPath></defs><g fill="#220204" fill-opacity="1"><g transform="translate(78.086666, 248.05587)"><g><path d="M 14.808594 0.738281 C 21.3125 0.738281 26.433594 -3.507812 27.585938 -9.78125 L 20.804688 -9.78125 C 19.652344 -7.105469 17.53125 -5.628906 14.808594 -5.628906 C 11.210938 -5.628906 8.394531 -8.625 8.394531 -12.453125 C 8.394531 -16.328125 11.164062 -19.28125 14.808594 -19.28125 C 17.484375 -19.28125 19.742188 -17.804688 20.804688 -15.359375 L 27.492188 -15.359375 C 26.292969 -21.496094 21.3125 -25.601562 14.855469 -25.601562 C 7.289062 -25.601562 1.570312 -19.972656 1.570312 -12.5 C 1.570312 -5.027344 7.289062 0.738281 14.808594 0.738281 Z M 14.808594 0.738281 "/></g></g></g><g fill="#220204" fill-opacity="1"><g transform="translate(106.917818, 248.05587)"><g><path d="M 23.527344 -24.910156 L 22.835938 -22.558594 C 20.667969 -24.449219 17.851562 -25.601562 14.625 -25.601562 C 7.148438 -25.601562 1.570312 -19.972656 1.570312 -12.453125 C 1.570312 -4.9375 7.148438 0.738281 14.625 0.738281 C 17.804688 0.738281 20.574219 -0.367188 22.695312 -2.261719 L 23.296875 0 L 28.554688 0 L 28.554688 -24.910156 Z M 15.175781 -5.628906 C 11.253906 -5.628906 8.394531 -8.582031 8.394531 -12.453125 C 8.394531 -16.375 11.253906 -19.28125 15.175781 -19.28125 C 19.097656 -19.28125 21.957031 -16.375 21.957031 -12.453125 C 21.957031 -8.535156 19.097656 -5.628906 15.175781 -5.628906 Z M 15.175781 -5.628906 "/></g></g></g><g fill="#220204" fill-opacity="1"><g transform="translate(138.747419, 248.05587)"><g><path d="M 15.960938 -25.046875 C 12.730469 -25.046875 10.519531 -24.035156 8.71875 -21.820312 L 7.519531 -24.910156 L 3.230469 -24.910156 L 3.230469 0 L 9.964844 0 L 9.964844 -12.917969 C 9.964844 -16.976562 11.441406 -18.683594 15.222656 -18.683594 L 18.175781 -18.683594 L 18.175781 -25.046875 Z M 15.960938 -25.046875 "/></g></g></g><g fill="#220204" fill-opacity="1"><g transform="translate(157.522271, 248.05587)"><g><path d="M 27.402344 -12.5 C 27.402344 -19.699219 22.140625 -25.601562 14.484375 -25.601562 C 7.105469 -25.601562 1.570312 -19.929688 1.570312 -12.453125 C 1.570312 -4.980469 7.148438 0.738281 14.484375 0.738281 C 20.296875 0.738281 25.046875 -2.722656 26.847656 -8.164062 L 19.789062 -8.164062 C 18.773438 -6.367188 16.835938 -5.257812 14.484375 -5.257812 C 11.210938 -5.257812 8.996094 -7.148438 8.394531 -10.5625 L 27.261719 -10.5625 C 27.355469 -11.210938 27.402344 -11.855469 27.402344 -12.5 Z M 14.484375 -19.835938 C 17.53125 -19.835938 19.699219 -18.175781 20.667969 -15.128906 L 8.582031 -15.128906 C 9.363281 -18.082031 11.484375 -19.835938 14.484375 -19.835938 Z M 14.484375 -19.835938 "/></g></g></g><g fill="#220204" fill-opacity="1"><g transform="translate(186.49182, 248.05587)"><g><path d="M 12.039062 0.738281 C 18.359375 0.738281 22.511719 -2.582031 22.511719 -7.65625 C 22.511719 -13.746094 17.296875 -14.578125 13.238281 -15.316406 C 10.65625 -15.777344 8.535156 -16.191406 8.535156 -17.851562 C 8.535156 -19.28125 9.78125 -20.203125 11.855469 -20.203125 C 14.207031 -20.203125 15.59375 -19.234375 15.636719 -17.253906 L 22.050781 -17.253906 C 22.003906 -22.234375 18.035156 -25.601562 12.039062 -25.601562 C 6.042969 -25.601562 2.03125 -22.328125 2.03125 -17.621094 C 2.03125 -11.761719 7.105469 -10.703125 11.070312 -10.011719 C 13.699219 -9.59375 15.867188 -9.085938 15.867188 -7.378906 C 15.867188 -5.71875 14.160156 -4.84375 12.316406 -4.84375 C 9.917969 -4.84375 8.210938 -5.949219 8.164062 -8.164062 L 1.613281 -8.164062 C 1.613281 -2.859375 5.8125 0.738281 12.039062 0.738281 Z M 12.039062 0.738281 "/></g></g></g><g fill="#220204" fill-opacity="1"><g transform="translate(210.709997, 248.05587)"><g><path d="M 20.433594 -24.910156 L 14.207031 -9.550781 L 7.566406 -24.910156 L 0.230469 -24.910156 L 10.792969 -1.890625 L 10.703125 -1.707031 C 9.179688 2.074219 8.347656 2.953125 5.074219 2.953125 L 2.769531 2.953125 L 2.769531 8.996094 L 5.535156 8.996094 C 11.117188 8.996094 13.746094 6.457031 16.746094 -0.324219 L 27.585938 -24.910156 Z M 20.433594 -24.910156 "/></g></g></g><g fill="#220204" fill-opacity="1"><g transform="translate(238.48016, 248.05587)"><g><path d="M 17.390625 -25.464844 C 14.023438 -25.464844 11.023438 -24.035156 9.132812 -21.820312 L 7.84375 -24.910156 L 3.230469 -24.910156 L 3.230469 0 L 9.964844 0 L 9.964844 -13.054688 C 9.964844 -17.066406 12.085938 -19.558594 15.546875 -19.558594 C 18.453125 -19.558594 19.882812 -17.761719 19.882812 -13.976562 L 19.882812 0 L 26.617188 0 L 26.617188 -15.085938 C 26.617188 -21.402344 23.066406 -25.464844 17.390625 -25.464844 Z M 17.390625 -25.464844 "/></g></g></g><g fill="#220204" fill-opacity="1"><g transform="translate(268.049402, 248.05587)"><g><path d="M 14.808594 0.738281 C 21.3125 0.738281 26.433594 -3.507812 27.585938 -9.78125 L 20.804688 -9.78125 C 19.652344 -7.105469 17.53125 -5.628906 14.808594 -5.628906 C 11.210938 -5.628906 8.394531 -8.625 8.394531 -12.453125 C 8.394531 -16.328125 11.164062 -19.28125 14.808594 -19.28125 C 17.484375 -19.28125 19.742188 -17.804688 20.804688 -15.359375 L 27.492188 -15.359375 C 26.292969 -21.496094 21.3125 -25.601562 14.855469 -25.601562 C 7.289062 -25.601562 1.570312 -19.972656 1.570312 -12.5 C 1.570312 -5.027344 7.289062 0.738281 14.808594 0.738281 Z M 14.808594 0.738281 "/></g></g></g><g fill="#ed1f2f" fill-opacity="1"><g transform="translate(122.579752, 273.442673)"><g><path d="M 4.238281 0.125 C 6.175781 0.125 7.679688 -0.917969 7.679688 -2.757812 C 7.679688 -4.792969 5.949219 -5.199219 4.417969 -5.574219 C 3.164062 -5.867188 2.035156 -6.144531 2.035156 -7.207031 C 2.035156 -8.140625 2.925781 -8.695312 4.109375 -8.695312 C 5.296875 -8.695312 6.1875 -8.070312 6.1875 -6.980469 L 7.398438 -6.980469 C 7.398438 -8.753906 6.160156 -9.867188 4.140625 -9.867188 C 2.117188 -9.867188 0.820312 -8.851562 0.820312 -7.164062 C 0.820312 -5.210938 2.480469 -4.808594 3.984375 -4.460938 C 5.253906 -4.152344 6.410156 -3.886719 6.410156 -2.746094 C 6.410156 -1.714844 5.449219 -1.074219 4.222656 -1.074219 C 2.871094 -1.074219 1.882812 -1.785156 1.882812 -2.996094 L 0.628906 -2.996094 C 0.628906 -1.074219 2.089844 0.125 4.238281 0.125 Z M 4.238281 0.125 "/></g></g></g><g fill="#ed1f2f" fill-opacity="1"><g transform="translate(142.049148, 273.442673)"><g><path d="M 8.808594 -9.753906 L 7.46875 -9.753906 L 4.585938 -5.03125 L 1.714844 -9.753906 L 0.375 -9.753906 L 3.945312 -3.886719 L 3.945312 0 L 5.210938 0 L 5.210938 -3.886719 Z M 8.808594 -9.753906 "/></g></g></g><g fill="#ed1f2f" fill-opacity="1"><g transform="translate(162.368671, 273.442673)"><g><path d="M 4.238281 0.125 C 6.175781 0.125 7.679688 -0.917969 7.679688 -2.757812 C 7.679688 -4.792969 5.949219 -5.199219 4.417969 -5.574219 C 3.164062 -5.867188 2.035156 -6.144531 2.035156 -7.207031 C 2.035156 -8.140625 2.925781 -8.695312 4.109375 -8.695312 C 5.296875 -8.695312 6.1875 -8.070312 6.1875 -6.980469 L 7.398438 -6.980469 C 7.398438 -8.753906 6.160156 -9.867188 4.140625 -9.867188 C 2.117188 -9.867188 0.820312 -8.851562 0.820312 -7.164062 C 0.820312 -5.210938 2.480469 -4.808594 3.984375 -4.460938 C 5.253906 -4.152344 6.410156 -3.886719 6.410156 -2.746094 C 6.410156 -1.714844 5.449219 -1.074219 4.222656 -1.074219 C 2.871094 -1.074219 1.882812 -1.785156 1.882812 -2.996094 L 0.628906 -2.996094 C 0.628906 -1.074219 2.089844 0.125 4.238281 0.125 Z M 4.238281 0.125 "/></g></g></g><g fill="#ed1f2f" fill-opacity="1"><g transform="translate(181.838069, 273.442673)"><g><path d="M 7.441406 -9.753906 L 0.292969 -9.753906 L 0.292969 -8.597656 L 3.261719 -8.597656 L 3.261719 0 L 4.472656 0 L 4.472656 -8.597656 L 7.441406 -8.597656 Z M 7.441406 -9.753906 "/></g></g></g><g fill="#ed1f2f" fill-opacity="1"><g transform="translate(200.736067, 273.442673)"><g><path d="M 2.550781 -1.171875 L 2.550781 -4.445312 L 6.480469 -4.445312 L 6.480469 -5.574219 L 2.550781 -5.574219 L 2.550781 -8.585938 L 6.84375 -8.585938 L 6.84375 -9.753906 L 1.324219 -9.753906 L 1.324219 0 L 6.996094 0 L 6.996094 -1.171875 Z M 2.550781 -1.171875 "/></g></g></g><g fill="#ed1f2f" fill-opacity="1"><g transform="translate(219.592251, 273.442673)"><g><path d="M 12.710938 0 L 11.09375 -9.753906 L 9.882812 -9.753906 L 6.648438 -2.59375 L 3.429688 -9.753906 L 2.242188 -9.753906 L 0.597656 0 L 1.855469 0 L 3.136719 -7.609375 L 6.496094 -0.238281 L 6.828125 -0.238281 L 10.1875 -7.609375 L 11.457031 0 Z M 12.710938 0 "/></g></g></g><g fill="#ed1f2f" fill-opacity="1"><g transform="translate(244.078801, 273.442673)"><g><path d="M 4.238281 0.125 C 6.175781 0.125 7.679688 -0.917969 7.679688 -2.757812 C 7.679688 -4.792969 5.949219 -5.199219 4.417969 -5.574219 C 3.164062 -5.867188 2.035156 -6.144531 2.035156 -7.207031 C 2.035156 -8.140625 2.925781 -8.695312 4.109375 -8.695312 C 5.296875 -8.695312 6.1875 -8.070312 6.1875 -6.980469 L 7.398438 -6.980469 C 7.398438 -8.753906 6.160156 -9.867188 4.140625 -9.867188 C 2.117188 -9.867188 0.820312 -8.851562 0.820312 -7.164062 C 0.820312 -5.210938 2.480469 -4.808594 3.984375 -4.460938 C 5.253906 -4.152344 6.410156 -3.886719 6.410156 -2.746094 C 6.410156 -1.714844 5.449219 -1.074219 4.222656 -1.074219 C 2.871094 -1.074219 1.882812 -1.785156 1.882812 -2.996094 L 0.628906 -2.996094 C 0.628906 -1.074219 2.089844 0.125 4.238281 0.125 Z M 4.238281 0.125 "/></g></g></g><path fill="#ed1f2f" d="M 187.402344 128.800781 L 192.210938 167.636719 C 190.203125 165.898438 187.988281 163.996094 185.527344 161.875 C 179.863281 157 175.921875 152.226562 173.195312 147.800781 L 181.4375 147.800781 C 182.363281 147.800781 183.164062 147.160156 183.371094 146.257812 L 187.402344 128.800781 " fill-opacity="1" fill-rule="nonzero"/><g clip-path="url(#a0da7ca014)"><path fill="#ed1f2f" d="M 255.351562 161.875 C 232.605469 181.453125 230.753906 183.042969 220.4375 197.59375 C 212.71875 186.707031 209.742188 183.074219 199.203125 173.734375 L 207.457031 137.175781 L 216.515625 163.75 C 216.785156 164.535156 217.511719 165.074219 218.335938 165.09375 C 219.164062 165.125 219.917969 164.632812 220.234375 163.871094 L 226.882812 147.800781 L 250.589844 147.800781 C 251.6875 147.800781 252.578125 146.910156 252.578125 145.8125 C 252.578125 144.714844 251.6875 143.824219 250.589844 143.824219 L 225.554688 143.824219 C 224.746094 143.824219 224.023438 144.308594 223.71875 145.054688 L 218.578125 157.472656 L 208.953125 129.230469 C 208.664062 128.386719 207.855469 127.84375 206.964844 127.886719 C 206.078125 127.933594 205.328125 128.566406 205.132812 129.433594 L 196.316406 168.460938 L 189.964844 117.15625 C 189.847656 116.203125 189.058594 115.464844 188.097656 115.414062 C 187.144531 115.363281 186.273438 116.015625 186.058594 116.953125 L 179.855469 143.824219 L 171.011719 143.824219 C 165.523438 132.492188 167.808594 124.308594 167.808594 124.308594 C 167.808594 124.308594 168.597656 105.523438 190.023438 101.027344 C 211.445312 96.53125 220.4375 116.636719 220.4375 116.636719 C 220.4375 116.636719 229.429688 96.53125 250.851562 101.027344 C 272.277344 105.523438 273.070312 124.308594 273.070312 124.308594 C 273.070312 124.308594 278.097656 142.300781 255.351562 161.875 " fill-opacity="1" fill-rule="nonzero"/></g><g clip-path="url(#6c280d7407)"><path fill="#ec1d27" d="M 171.011719 143.824219 C 171.632812 145.113281 172.355469 146.441406 173.195312 147.800781 L 164.921875 147.800781 L 158.855469 163.816406 C 158.53125 164.664062 157.675781 165.1875 156.777344 165.082031 C 155.875 164.984375 155.15625 164.289062 155.023438 163.394531 L 151.902344 141.601562 L 145.828125 171.90625 C 145.640625 172.835938 144.824219 173.503906 143.882812 173.503906 L 143.84375 173.503906 C 142.886719 173.488281 142.078125 172.789062 141.917969 171.84375 C 139.152344 155.277344 134.792969 130.402344 132.421875 119.265625 C 130.355469 126.253906 127.113281 138.136719 124.933594 146.324219 C 124.703125 147.191406 123.914062 147.800781 123.015625 147.800781 L 98.570312 147.800781 C 97.476562 147.800781 96.585938 146.910156 96.585938 145.8125 C 96.585938 144.714844 97.476562 143.824219 98.570312 143.824219 L 121.488281 143.824219 C 124.203125 133.640625 129.71875 113.300781 130.902344 111.527344 C 131.375 110.820312 132.210938 110.472656 133.039062 110.648438 C 134.511719 110.964844 134.867188 112.386719 135.453125 114.734375 C 135.847656 116.308594 136.347656 118.601562 136.949219 121.539062 C 137.945312 126.453125 139.226562 133.277344 140.757812 141.824219 C 141.957031 148.53125 143.125 155.269531 144.039062 160.59375 L 150.277344 129.480469 C 150.464844 128.535156 151.3125 127.855469 152.28125 127.886719 C 153.25 127.914062 154.054688 128.632812 154.191406 129.59375 L 157.867188 155.199219 L 161.695312 145.105469 C 161.984375 144.335938 162.726562 143.824219 163.550781 143.824219 L 171.011719 143.824219 " fill-opacity="1" fill-rule="nonzero"/></g><path fill="#ec1d27" d="M 199.203125 173.734375 L 197.683594 180.453125 C 197.476562 181.363281 196.671875 182.003906 195.746094 182.003906 C 195.714844 182.003906 195.683594 182.003906 195.644531 182 C 194.679688 181.953125 193.894531 181.222656 193.773438 180.257812 L 192.210938 167.636719 C 194.878906 169.941406 197.179688 171.945312 199.203125 173.734375 " fill-opacity="1" fill-rule="nonzero"/></svg>